# xmcd CD database file
#
# Track frame offsets:
#	150
#	16357
#	32507
#	51762
#	69247
#	83325
#	98777
#	115235
#	129662
#	144180
#	157897
#	174597
#	187490
#	207250
#	224595
#	241042
#	261712
#	273702
#	293225
#	307200
#
# Disc length: 4293 seconds
#
# Revision: 3
# Processed by: cddbd v1.5.1PL0 Copyright (c) Steve Scherf et al.
# Submitted via: CDex 1.51
#
DISCID=2b10c314
DTITLE=Kenny Rogers - The Most Of Kenny Rogers
DYEAR=1996
DGENRE=Country
TTITLE0=Lucille
TTITLE1=The Gambler
TTITLE2=She Believes In Me
TTITLE3=Lady
TTITLE4=Daytime Friends
TTITLE5=I Don't Need You
TTITLE6=Love Will Turn You Around
TTITLE7=Love The World Away
TTITLE8=But You Know I Love You
TTITLE9=What Are We Doin' In Love
TTITLE10=Don't Fall In Love With A Dreamer (With Kim Carnes)
TTITLE11=Ruby Don't Take Your Love To Town
TTITLE12=Coward Of The County
TTITLE13=We've Got Tonight (With Sheena Easton)
TTITLE14=You Decorated My Life
TTITLE15=Through The Years
TTITLE16=Reuben James
TTITLE17=Something's Burning
TTITLE18=Today I Started Loving You Again
TTITLE19=Share Your Love With Me
EXTD=YEAR: 1996
EXTT0=
EXTT1=
EXTT2=
EXTT3=
EXTT4=
EXTT5=
EXTT6=
EXTT7=
EXTT8=
EXTT9=
EXTT10=
EXTT11=
EXTT12=
EXTT13=
EXTT14=
EXTT15=
EXTT16=
EXTT17=
EXTT18=
EXTT19=
PLAYORDER=
